HIERARCHY
ROOT Hips
{
	OFFSET 0.00000 0.00000 0.00000
	CHANNELS 6 Xposition Yposition Zposition Zrotation Yrotation Xrotation 
	JOINT LHipJoint
	{
		OFFSET 0 0 0
		CHANNELS 3 Zrotation Yrotation Xrotation
		JOINT LeftHip
		{
			OFFSET 1.41496 -1.84582 0.78394
			CHANNELS 3 Zrotation Yrotation Xrotation
			JOINT LeftKnee
			{
				OFFSET 2.58040 -7.08960 0.00000
				CHANNELS 3 Zrotation Yrotation Xrotation
				JOINT LeftAnkle
				{
					OFFSET 2.64719 -7.27309 0.00000
					CHANNELS 3 Zrotation Yrotation Xrotation
					JOINT LeftToe
					{
						OFFSET 0.20718 -0.56921 2.20259
						CHANNELS 3 Zrotation Yrotation Xrotation
						End Site
						{
							OFFSET 0.00000 -0.00000 1.14243
						}
					}
				}
			}
		}
	}
	JOINT RHipJoint
	{
		OFFSET 0 0 0
		CHANNELS 3 Zrotation Yrotation Xrotation
		JOINT RightHip
		{
			OFFSET -1.40551 -1.84582 0.78394
			CHANNELS 3 Zrotation Yrotation Xrotation
			JOINT RightKnee
			{
				OFFSET -2.56572 -7.04926 0.00000
				CHANNELS 3 Zrotation Yrotation Xrotation
				JOINT RightAnkle
				{
					OFFSET -2.57974 -7.08778 0.00000
					CHANNELS 3 Zrotation Yrotation Xrotation
					JOINT RightToe
					{
						OFFSET -0.26704 -0.73369 2.20815
						CHANNELS 3 Zrotation Yrotation Xrotation
						End Site
						{
							OFFSET -0.00000 -0.00000 1.16246
						}
					}
				}
			}
		}
	}
	JOINT lowerback
	{
		OFFSET 0 0 0
		CHANNELS 3 Zrotation Yrotation Xrotation
		JOINT Chest
		{
			OFFSET -0.04690 2.05196 -0.07017
			CHANNELS 3 Zrotation Yrotation Xrotation
			JOINT Chest2
			{
				OFFSET 0.04085 2.05260 0.00800
				CHANNELS 3 Zrotation Yrotation Xrotation
				JOINT lowerneck
				{
					OFFSET 0 0 0
					CHANNELS 3 Zrotation Yrotation Xrotation
					JOINT Neck
					{
						OFFSET -0.03582 1.80995 0.19301
						CHANNELS 3 Zrotation Yrotation Xrotation
						JOINT Head
						{
							OFFSET 0.00952 1.80195 -0.36389
							CHANNELS 3 Zrotation Yrotation Xrotation
							End Site
							{
								OFFSET 0.00392 1.85062 -0.14494
							}
						}
					}
				}
				JOINT LeftCollar
				{
					OFFSET 0 0 0
					CHANNELS 3 Zrotation Yrotation Xrotation
					JOINT LeftShoulder
					{
						OFFSET 3.55224 1.39726 -0.13667
CHANNELS 3 Zrotation Xrotation Yrotation
						JOINT LeftElbow
						{
OFFSET 0 -5.145070 -0.000000
CHANNELS 3 Zrotation Xrotation Yrotation
							JOINT LeftWrist
							{
OFFSET 0 -3.506460 0.000000
CHANNELS 3 Zrotation Xrotation Yrotation
								JOINT lhand
								{
									OFFSET 0 0 0
CHANNELS 3 Zrotation Xrotation Yrotation
									JOINT LFingers
									{
OFFSET 0 -0.629970 0.000000
CHANNELS 3 Zrotation Xrotation Yrotation
										End Site
										{
OFFSET 0 -0.507900 0.000000
										}
									}
								}
								JOINT LThumb
								{
OFFSET 0 0.000000 0.000000
CHANNELS 3 Zrotation Xrotation Yrotation
									End Site
									{
OFFSET 0 -0.515650 0.515650
									}
								}
							}
						}
					}
				}
				JOINT RightCollar
				{
					OFFSET 0 0 0
					CHANNELS 3 Zrotation Yrotation Xrotation
					JOINT RightShoulder
					{
						OFFSET -3.06467 1.61290 -0.28813
CHANNELS 3 Zrotation Xrotation Yrotation
						JOINT RightElbow
						{
OFFSET 0 -5.232000 -0.000000
CHANNELS 3 Zrotation Xrotation Yrotation
							JOINT RightWrist
							{
OFFSET 0 -3.656410 0.000000
CHANNELS 3 Zrotation Xrotation Yrotation
								JOINT rhand
								{
									OFFSET 0 0 0
CHANNELS 3 Zrotation Xrotation Yrotation
									JOINT RFingers
									{
OFFSET 0 -0.656810 0.000000
CHANNELS 3 Zrotation Xrotation Yrotation
										End Site
										{
OFFSET 0 -0.529530 0.000000
										}
									}
								}
								JOINT RThumb
								{
OFFSET 0 0.000000 0.000000
CHANNELS 3 Zrotation Xrotation Yrotation
									End Site
									{
OFFSET 0 -0.537620 0.537620
									}
								}
							}
						}
					}
				}
			}
		}
	}
}
MOTION
Frames: 14
Frame Time: .0083333
-9.1517 17.1800 39.4626 179.7940 15.7206 -172.2430 0.0000 0.0000 0.0000 -9.8209 -12.9577 -28.8928 4.5906 12.9074 39.0227 0.4990 -7.6148 -12.8741 0.1995 2.8762 7.9343 0.0000 0.0000 0.0000 24.7260 0.5154 -13.8422 -2.3985 -9.6510 27.8537 -0.4681 -14.4591 -24.9933 -0.5343 4.6839 -13.0092 -0.2064 1.1335 4.5899 3.1422 1.7199 -1.6548 3.2250 0.9452 -4.3918 2.7082 2.7187 -13.7112 -4.3490 4.0357 14.5187 -1.4392 1.7794 6.8341 -0.0000 -0.0000 0.0000 -0.1004 0.8516 -25.8201 17.1464 -27.0504 4.1537 7.2613 9.5272 -1.2921 0.0 0.0 0.0 -7.1250 0.0 0.0 -15.2811 31.0519 -5.3797 -0.0000 -0.0000 0.0000 -6.8943 2.0464 15.9309 -20.6288 -31.3925 -5.8554 -18.5302 6.7099 10.9471 0.0 0.0 0.0 7.1250 0.0 -0.0 7.6273 41.3892 0.6837
-9.1456 17.1784 39.4710 179.7690 15.5543 -172.2580 0.0000 0.0000 0.0000 -9.8144 -12.9429 -28.9513 4.5878 12.9040 39.0101 0.4873 -7.7906 -12.7734 0.1992 2.8741 7.9285 0.0000 0.0000 0.0000 24.7595 0.5176 -13.8597 -2.4032 -9.6598 27.8819 -0.4626 -14.5867 -25.0916 -0.5234 4.6366 -12.8748 -0.2152 1.0740 4.5645 3.1340 1.6384 -1.6543 3.2287 0.9043 -4.3720 2.3980 2.7509 -13.4455 -4.0072 4.0722 14.2589 -1.2785 1.8127 6.6922 -0.0000 -0.0000 0.0000 -0.0863 0.8292 -25.7347 17.1551 -27.0618 4.1577 7.2146 9.5227 -1.4049 0.0 0.0 0.0 -7.1250 0.0 0.0 -15.3357 31.1603 -5.3588 -0.0000 -0.0000 0.0000 -6.8899 1.9346 16.0244 -20.6513 -31.419 -5.8671 -18.5632 6.6026 10.7684 0.0 0.0 0.0 7.1250 0.0 -0.0 7.5664 41.2065 0.7125
-9.1435 17.1776 39.4681 179.7740 15.5665 -172.2760 0.0000 0.0000 0.0000 -9.8057 -12.9750 -28.9065 4.5877 12.9039 39.0099 0.4896 -7.7627 -12.7940 0.2001 2.8804 7.9461 0.0000 0.0000 0.0000 24.7617 0.4743 -13.8428 -2.4036 -9.6605 27.8840 -0.4735 -14.4926 -25.0761 -0.5290 4.6606 -12.9431 -0.2588 1.0518 4.6320 3.2106 1.6201 -1.8037 3.3333 0.9028 -4.5687 2.5535 2.5446 -13.7215 -4.4826 3.8812 14.7782 -1.4718 1.6888 6.9137 -0.0000 0.0000 0.0000 -0.2536 1.1561 -25.5818 17.1790 -27.0931 4.1685 7.2108 9.507 -1.3604 0.0 0.0 0.0 -7.1250 0.0 0.0 -15.3313 31.117 -5.3737 -0.0000 0.0000 0.0000 -7.0545 2.1616 16.2601 -20.7111 -31.4896 -5.8983 -18.5377 6.411 10.7006 0.0 0.0 0.0 7.1250 0.0 -0.0 7.5767 41.1337 0.7272
-9.1389 17.1774 39.4702 179.7400 15.4953 -172.3040 0.0000 0.0000 0.0000 -9.8284 -12.9877 -28.8984 4.5872 12.9032 39.0073 0.4859 -7.8262 -12.7642 0.2002 2.8812 7.9482 0.0000 0.0000 0.0000 24.7488 0.4131 -13.8424 -2.4050 -9.6630 27.8922 -0.4736 -14.5051 -25.0913 -0.5324 4.6755 -12.9853 -0.2998 1.0413 4.6651 3.2201 1.6059 -1.8415 3.3669 0.8982 -4.6275 1.9128 2.8120 -12.8249 -3.6848 4.2045 14.0217 -1.0912 1.8908 6.4965 -0.0000 -0.0000 0.0000 -0.3045 1.182 -25.5209 17.1504 -27.0556 4.1555 7.2236 9.574 -1.3819 0.0 0.0 0.0 -7.1250 0.0 0.0 -15.3250 31.1383 -5.3632 -0.0000 -0.0000 0.0000 -7.0796 2.1742 16.3133 -20.7734 -31.5628 -5.9309 -18.5146 6.3256 10.6024 0.0 0.0 0.0 7.1250 0.0 -0.0 7.5797 41.0294 0.747
-9.1318 17.1760 39.4745 179.7590 15.4128 -172.3020 0.0000 0.0000 0.0000 -9.7720 -12.9954 -28.9307 4.5886 12.9049 39.0137 0.4804 -7.9068 -12.7174 0.2001 2.8802 7.9455 0.0000 0.0000 0.0000 24.8084 0.4369 -13.8269 -2.4043 -9.6618 27.8882 -0.4777 -14.5377 -25.1623 -0.5123 4.5876 -12.7359 -0.2021 1.0429 4.5341 3.1552 1.6034 -1.7482 3.2465 0.8894 -4.4508 2.4936 2.7217 -13.6012 -4.2700 4.0761 14.5018 -1.3756 1.7973 6.8051 -0.0000 0.0000 0.0000 -0.1904 0.989 -25.5808 17.1330 -27.0327 4.1476 7.1895 9.5671 -1.4118 0.0 0.0 0.0 -7.1250 0.0 0.0 -15.3563 31.1664 -5.3641 -0.0000 0.0000 0.0000 -6.927 1.97 16.317 -20.8115 -31.6076 -5.9508 -18.5382 6.3307 10.6884 0.0 0.0 0.0 7.1250 0.0 -0.0 7.5740 41.121 0.7293
-9.1261 17.1749 39.4772 179.7650 15.3489 -172.3150 0.0000 0.0000 0.0000 -9.7419 -13.0059 -28.9364 4.5898 12.9064 39.0190 0.4767 -7.9639 -12.6874 0.2000 2.8799 7.9446 0.0000 0.0000 0.0000 24.8448 0.4232 -13.8137 -2.4047 -9.6625 27.8907 -0.4797 -14.5550 -25.1991 -0.5060 4.5598 -12.6571 -0.1740 1.0321 4.5020 3.1452 1.5895 -1.7439 3.2219 0.8813 -4.4261 2.4769 2.7318 -13.6218 -4.2574 4.0890 14.4861 -1.3673 1.8031 6.8035 -0.0000 -0.0000 0.0000 -0.1844 0.9696 -25.5579 17.1221 -27.0184 4.1426 7.1954 9.5789 -1.422 0.0 0.0 0.0 -7.1250 0.0 0.0 -15.3534 31.1764 -5.3592 -0.0000 -0.0000 0.0000 -6.8929 1.9203 16.3999 -20.8576 -31.6618 -5.975 -18.5632 6.2786 10.704 0.0 0.0 0.0 7.1250 0.0 -0.0 7.5549 41.1395 0.724
-9.1203 17.1736 39.4802 179.7760 15.2822 -172.3280 0.0000 0.0000 0.0000 -9.7055 -13.0215 -28.9439 4.5922 12.9093 39.0297 0.4734 -8.0171 -12.6604 0.1998 2.8782 7.9397 0.0000 0.0000 0.0000 24.8878 0.4068 -13.7996 -2.4045 -9.6621 27.8894 -0.4813 -14.5739 -25.2337 -0.4994 4.5305 -12.5740 -0.1423 1.0236 4.4787 3.1350 1.5788 -1.7370 3.1947 0.8746 -4.4039 2.4485 2.7415 -13.6488 -4.2289 4.1000 14.4630 -1.3522 1.8084 6.8000 0.0000 0.0000 0.0000 -0.1759 0.9407 -25.5491 17.1086 -27.0008 4.1365 7.2098 9.5907 -1.4211 0.0 0.0 0.0 -7.1250 0.0 0.0 -15.3421 31.1759 -5.3552 0.0000 0.0000 0.0000 -6.85 1.8714 16.4816 -20.9030 -31.715 -5.9989 -18.5957 6.2407 10.7387 0.0 0.0 0.0 7.1250 0.0 -0.0 7.5326 41.1785 0.7145
-9.1142 17.1723 39.4832 179.7860 15.2152 -172.3430 0.0000 0.0000 0.0000 -9.6695 -13.0434 -28.9462 4.5947 12.9123 39.0412 0.4705 -8.0618 -12.6371 0.1995 2.8762 7.9344 0.0000 0.0000 0.0000 24.9311 0.3865 -13.7838 -2.4042 -9.6615 27.8875 -0.4827 -14.5941 -25.2683 -0.4926 4.4998 -12.4872 -0.1104 1.0177 4.4626 3.1226 1.5714 -1.7258 3.1646 0.8694 -4.3814 2.3849 2.7575 -13.6500 -4.1536 4.1162 14.4032 -1.3161 1.8186 6.7785 -0.0000 -0.0000 0.0000 -0.1637 0.9017 -25.5545 17.0944 -26.9821 4.1301 7.215 9.6003 -1.4208 0.0 0.0 0.0 -7.1250 0.0 0.0 -15.3379 31.1758 -5.3537 -0.0000 -0.0000 0.0000 -6.7975 1.8214 16.5594 -20.9459 -31.7651 -6.0214 -18.6308 6.2099 10.766 0.0 0.0 0.0 7.1250 0.0 -0.0 7.5066 41.2102 0.7061
-9.1082 17.1710 39.4858 179.7960 15.1523 -172.3620 0.0000 0.0000 0.0000 -9.6354 -13.0737 -28.9393 4.5975 12.9156 39.0535 0.4686 -8.0910 -12.6216 0.1991 2.8730 7.9254 0.0000 0.0000 0.0000 24.9731 0.3603 -13.7659 -2.4039 -9.6610 27.8857 -0.4839 -14.6115 -25.2980 -0.4871 4.4752 -12.4174 -0.0853 1.0117 4.4610 3.1159 1.5644 -1.7221 3.1441 0.8650 -4.3753 2.3143 2.7630 -13.6562 -4.0870 4.1226 14.3596 -1.2826 1.8229 6.7629 -0.0000 -0.0000 0.0000 -0.164 0.8806 -25.558 17.0819 -26.9656 4.1244 7.2107 9.6084 -1.4141 0.0 0.0 0.0 -7.1250 0.0 0.0 -15.3402 31.1691 -5.3571 -0.0000 -0.0000 0.0000 -6.7516 1.7939 16.6497 -20.9861 -31.8121 -6.0426 -18.6626 6.177 10.7748 0.0 0.0 0.0 7.1250 0.0 -0.0 7.4801 41.2222 0.7014
-9.1022 17.1697 39.4880 179.7970 15.0951 -172.3870 0.0000 0.0000 0.0000 -9.6125 -13.1116 -28.9205 4.6001 12.9187 39.0650 0.4678 -8.1040 -12.6150 0.1985 2.8689 7.9138 0.0000 0.0000 0.0000 25.0048 0.3270 -13.7455 -2.4037 -9.6607 27.8847 -0.4854 -14.6235 -25.3236 -0.4832 4.4573 -12.3669 -0.0750 1.0041 4.4741 3.1157 1.5554 -1.7291 3.1386 0.8604 -4.3891 2.2037 2.7733 -13.6075 -3.9900 4.1387 14.2894 -1.2326 1.8336 6.7280 -0.0000 -0.0000 0.0000 -0.1831 0.8855 -25.5504 17.0707 -26.9509 4.1193 7.2045 9.6217 -1.4024 0.0 0.0 0.0 -7.1250 0.0 0.0 -15.3431 31.1576 -5.3626 -0.0000 -0.0000 0.0000 -6.7174 1.7959 16.7536 -21.0219 -31.8539 -6.0615 -18.6829 6.1404 10.7531 0.0 0.0 0.0 7.1250 0.0 -0.0 7.4586 41.2015 0.7032
-9.0962 17.1684 39.4895 179.7930 15.0468 -172.4170 0.0000 0.0000 0.0000 -9.5996 -13.1552 -28.8896 4.6024 12.9215 39.0754 0.4681 -8.0997 -12.6179 0.1978 2.8639 7.9000 0.0000 0.0000 0.0000 25.0268 0.2894 -13.7212 -2.4036 -9.6606 27.8844 -0.4875 -14.6276 -25.3460 -0.4798 4.4422 -12.3241 -0.0766 0.9960 4.4949 3.1200 1.5458 -1.7425 3.1444 0.8561 -4.4146 2.0970 2.7838 -13.5506 -3.9090 4.1583 14.2280 -1.1881 1.8451 6.6951 0.0000 0.0000 0.0000 -0.2164 0.9111 -25.5348 17.0618 -26.9391 4.1153 7.1884 9.6367 -1.3919 0.0 0.0 0.0 -7.1250 0.0 0.0 -15.3539 31.147 -5.3707 0.0000 0.0000 0.0000 -6.6915 1.8206 16.8684 -21.0538 -31.8911 -6.0783 -18.6839 6.1082 10.7138 0.0 0.0 0.0 7.1250 0.0 -0.0 7.4507 41.1608 0.7099
-9.0902 17.1672 39.4907 179.7820 15.0050 -172.4500 0.0000 0.0000 0.0000 -9.5946 -13.2006 -28.8520 4.6044 12.9240 39.0845 0.4692 -8.0851 -12.6273 0.1969 2.8576 7.8825 0.0000 0.0000 0.0000 25.0417 0.2530 -13.6956 -2.4039 -9.6610 27.8859 -0.4893 -14.6315 -25.3652 -0.4781 4.4341 -12.3012 -0.0868 0.9887 4.5170 3.1251 1.5367 -1.7572 3.1559 0.8524 -4.4423 2.0135 2.7925 -13.5114 -3.8586 4.1771 14.1883 -1.1570 1.8547 6.6734 -0.0000 -0.0000 0.0000 -0.2566 0.9453 -25.517 17.0554 -26.9307 4.1124 7.165 9.6533 -1.3854 0.0 0.0 0.0 -7.1250 0.0 0.0 -15.3710 31.14 -5.3797 -0.0000 -0.0000 0.0000 -6.6648 1.855 16.9794 -21.0794 -31.9209 -6.0919 -18.6621 6.0905 10.6588 0.0 0.0 0.0 7.1250 0.0 -0.0 7.4603 41.1016 0.7218
-9.0839 17.1659 39.4915 179.7680 14.9700 -172.4850 0.0000 0.0000 0.0000 -9.5937 -13.2429 -28.8100 4.6063 12.9262 39.0928 0.4708 -8.0655 -12.6407 0.1962 2.8524 7.8682 0.0000 0.0000 0.0000 25.0528 0.2216 -13.6663 -2.4044 -9.6619 27.8887 -0.4910 -14.6362 -25.3843 -0.4769 4.4286 -12.2858 -0.0991 0.9802 4.5277 3.1293 1.5255 -1.7674 3.1680 0.8475 -4.4589 1.9528 2.8006 -13.4813 -3.8362 4.1961 14.1601 -1.1385 1.8633 6.6580 -0.0000 -0.0000 0.0000 -0.2992 0.9808 -25.4934 17.0510 -26.925 4.1104 7.1374 9.6661 -1.3815 0.0 0.0 0.0 -7.1250 0.0 0.0 -15.3917 31.1355 -5.3892 -0.0000 -0.0000 0.0000 -6.6345 1.8902 17.0928 -21.0978 -31.9423 -6.1016 -18.6198 6.0865 10.5982 0.0 0.0 0.0 7.1250 0.0 -0.0 7.4867 41.0346 0.7368
-9.0771 17.1646 39.4924 179.7550 14.9540 -172.5130 0.0000 0.0000 0.0000 -9.5899 -13.2691 -28.7766 4.6083 12.9286 39.1018 0.4726 -8.0448 -12.6575 0.1958 2.8492 7.8593 0.0000 0.0000 0.0000 25.0646 0.2091 -13.6388 -2.4050 -9.6630 27.8922 -0.4928 -14.6382 -25.4012 -0.4760 4.4245 -12.2741 -0.1163 0.9771 4.5255 3.1326 1.5206 -1.7734 3.1816 0.8458 -4.4641 1.9353 2.8052 -13.4921 -3.8612 4.2111 14.1633 -1.1420 1.8676 6.6616 -0.0000 -0.0000 0.0000 -0.3405 1.011 -25.4714 17.0484 -26.9216 4.1092 7.1191 9.6767 -1.377 0.0 0.0 0.0 -7.1250 0.0 0.0 -15.4052 31.1305 -5.3962 -0.0000 -0.0000 0.0000 -6.5967 1.9204 17.2052 -21.1077 -31.9539 -6.1069 -18.574 6.0856 10.5376 0.0 0.0 0.0 7.1250 0.0 -0.0 7.5162 40.9674 0.7523
